<svg width="900" height="900" viewBox="0 0 900 900" fill="none" xmlns="http://www.w3.org/2000/svg">
<path d="M133 341.1V382.3L137.3 381.5C150.5 379.3 155.4 379 174.5 379.1L195.5 379.2L195.8 369.1L196.1 359H241C265.8 359 286 358.7 286 358.2C286 357.8 283.6 344.7 280.7 329L275.3 300.5L204.2 300.2L133 300V341.1Z" fill="white"/>
<path d="M410 358.6C398.7 361.7 389.1 370.2 384.8 380.8C382.6 386.4 382.5 387.3 382.5 421.5C382.5 456.2 382.5 456.6 384.9 462.5C388.2 470.7 397.3 479.8 405.5 483.1C411.3 485.4 412.4 485.5 437 485.5C461.1 485.5 462.8 485.4 468 483.3C483.1 477.2 490.6 465.6 492.5 445.7L493.2 439H478.6H464V441.9C464 449.5 459.1 455.4 451.6 457.1C448.6 457.7 441.1 458.1 434 457.9C419.2 457.4 415.8 456.1 412.3 449C410.1 444.8 410 443.4 410 421.5C410 399.6 410.1 398.2 412.3 394C415.8 386.9 419.2 385.6 434 385.1C441.1 384.9 448.6 385.3 451.6 385.9C459.1 387.6 464 393.5 464 401.1V404H478.6H493.2L492.5 397.2C490.6 377.4 483 365.7 468 359.8C463 357.8 460.5 357.6 439 357.3C420.5 357.1 414.3 357.4 410 358.6Z" fill="white"/>
<path d="M501 421.5V486H551.5H602V472V458H565.5H529V444.5V431H561H593V417V403H561H529V394V385H565.5H602V371V357H551.5H501V421.5Z" fill="white"/>
<path d="M611 421.5V486H661.5H712V472V458H675.5H639V407.5V357H625H611V421.5Z" fill="white"/>
<path d="M721 421.5V486H771.5H822V472V458H785.5H749V407.5V357H735H721V421.5Z" fill="white"/>
<path d="M360.9 394.9C353.2 402.7 342.2 408.8 329.5 412.2C322.7 414 318.7 414.3 303 414.4C282.5 414.4 278.1 413.9 234.4 406C194.4 398.7 184.8 397.7 164.1 398.3C143.8 398.8 138 400 124.5 406.5C113 412 103.9 420.2 96 432.3C92.7 437.3 90 441.8 90 442.4C90 443 91.5 441.2 93.4 438.4C98.2 431.3 107.1 423.6 114.6 420C132.3 411.5 153.2 411.9 195.5 421.6C252.5 434.6 272 437.3 292.8 435.2C299.2 434.6 307.9 433.1 312 431.9C328.1 427.4 345.1 416.6 356 403.9C360.9 398.2 368.7 387.8 367.8 388.1C367.6 388.2 364.5 391.2 360.9 394.9Z" fill="white"/>
<path d="M138.9 435C133.7 435.8 117 440.7 117 441.5C117 441.6 119.1 441.6 121.8 441.4C126 441.1 126.1 441.2 123 441.9C121.1 442.3 117.6 443.6 115.3 444.8C110.5 447.3 108.6 447.6 111.4 445.5C112.5 444.7 112.9 444 112.3 444C111 444 109.5 445.9 109.5 447.4C109.5 447.9 108.9 448.5 108.1 448.8C107.2 449.1 107 448.8 107.5 447.9C108 447.1 107.9 446.8 107.4 447.3C106.9 447.8 106.5 448.7 106.5 449.3C106.5 450 105.6 450.6 104.5 450.9C98.4 452 87 463.4 78.9 476.5C73.5 485.1 68.1 498.7 68.3 503.5C68.3 504.6 68 507.5 67.6 510C67.1 513.3 67.2 514.1 67.9 513C68.7 511.9 68.8 513 68.4 517.1C68 520.6 68.2 523.5 68.9 524.6C69.8 526.2 69.9 525.8 69.5 522.5C69.2 520.3 69.4 517.1 70 515.5C70.9 512.7 70.9 512.8 70.4 516.5C69.6 522.2 70.5 520.6 72.5 513C76.5 497.4 84.1 484.6 95.2 474.5C100.7 469.6 112.7 462.4 113.7 463.4C114.2 463.9 106.8 468.4 105.5 468.4C105 468.5 104.5 468.9 104.5 469.5C104.5 471.1 103 473 101.7 473C101 473 101.4 472.3 102.4 471.5C103.5 470.7 103.9 470 103.3 470C102.7 470 101.7 470.7 101 471.5C100.3 472.3 100.1 473 100.6 473C101 473 100.1 474.3 98.5 476C96.5 478.1 96.1 479 97.2 479C98 479 99.5 478.1 100.5 477C101.8 475.6 103.2 475.2 105.6 475.5C107.8 475.8 109 475.5 109 474.7C109 473.6 116.9 469.6 117.7 470.3C117.8 470.5 115.5 472.4 112.5 474.6C103.9 480.7 103.2 481.2 106.6 479.6C108.3 478.8 110.1 478.4 110.5 478.8C111 479.2 110.9 478.9 110.5 478.1C109.9 477 110.1 476.8 111.4 477.3C112.4 477.7 114.9 477.1 117.3 475.8C119.6 474.7 122.6 473.7 124 473.6C125.4 473.5 126.4 473 126.3 472.2C126.1 471.6 126.6 471 127.3 471C127.9 471 129.5 470.7 130.8 470.4C132.1 470 133 470.1 132.9 470.6C132.8 471.1 132.8 495.9 132.9 525.7L133 580H205.8H278.5L286.1 550.7L293.6 521.5L244.8 521.2L196 521V500.5C196 487.1 196.4 480 197 480C197.6 480 204 481.1 211.3 482.4C262.5 491.9 299.1 485 330.4 460C337.5 454.5 353 438.2 353 436.5C353 436 352.2 436.5 351.2 437.6C345.3 444.8 331.7 453.2 319.6 456.9C296.9 463.9 275.5 461.7 222 447C208 443.1 190.7 438.9 183.7 437.5C169.5 434.7 148.1 433.5 138.9 435Z" fill="white"/>
<path d="M714.7 540.3C705 561.4 697 579 697 579.3C697 579.7 701 580 705.8 580H714.6L716.8 575.5L719 571H732.8H746.6L748.8 575.5L751 580H768H785V568.3V556.5L796.8 568.3L808.5 580H820.5H832.5L822.6 570.1C812.8 560.3 812.8 560.3 815.7 559.6C824.5 557.4 830 549.8 830.8 539C831.7 526 827.4 516.9 818.5 512.9C815 511.3 811.6 511 791.8 511H769V545.2V579.5L751.4 541.5C741.8 520.6 733.5 503.2 733.1 502.7C732.7 502.3 724.4 519.2 714.7 540.3ZM809.4 527.4C815.5 529.9 816.3 540.2 810.7 543.2C809.5 543.8 803.3 544.5 796.8 544.8L785 545.3V535.6V526H795.5C802.3 526 807.3 526.5 809.4 527.4Z" fill="white"/>
<path d="M383 545.5V580H391H399V545.5V511H391H383V545.5Z" fill="white"/>
<path d="M403 545.5V580H411H419V545.5V511H411H403V545.5Z" fill="white"/>
<path d="M424 518.5V526H434H444V553V580H452H460V553V526H470.5H481V518.5V511H452.5H424V518.5Z" fill="white"/>
<path d="M512 545.5V580H520H528V568.3V556.5L539.8 568.3L551.5 580H563.5H575.5L565.6 570.1C555.8 560.3 555.8 560.3 558.7 559.6C567.5 557.4 573 549.8 573.8 539C574.7 526 570.4 516.9 561.5 512.9C558 511.3 554.6 511 534.8 511H512V545.5ZM552.4 527.4C558.5 529.9 559.3 540.2 553.7 543.2C552.5 543.8 546.3 544.5 539.8 544.8L528 545.3V535.6V526H538.5C545.3 526 550.3 526.5 552.4 527.4Z" fill="white"/>
<path d="M592.5 512.2C587.5 513.9 583.3 517.7 581 522.4C579 526.6 578.9 528.1 579.2 546.9L579.5 566.8L582.5 571.1C587.5 578.2 591.2 579.4 608 579.8C624.7 580.2 628.4 579.4 634.1 574.3C639.8 569.2 641 564 641 545.5C641 527.8 639.7 522.1 634.8 517.3C629.2 511.8 625.7 511 609.8 511.1C601.9 511.1 594.2 511.6 592.5 512.2ZM619.4 527.4C623.9 529.3 625 532.9 625 545.7C625 562.9 622.5 565.6 607.3 564.8C600.6 564.5 599.5 564.2 597.4 561.7C595.1 559 595 558.2 595 545.7C595 527.8 596.1 526.2 609.3 526.1C613 526 617.6 526.6 619.4 527.4Z" fill="white"/>
<path d="M646 545.5V580H654H662V570.7V561.3L676.5 560.7C692.4 560 696.4 558.9 701.8 553.7C710 545.7 710 525.3 701.8 517.3C695.7 511.4 693.4 511 668.5 511H646V545.5ZM686.4 527.4C693.4 530.3 693.1 541.4 686 543.9C684.2 544.5 678 545 672.4 545H662V535.5V526H672.5C679.3 526 684.3 526.5 686.4 527.4Z" fill="white"/>
</svg>
