<?xml version="1.0" standalone="no"?>
<!DOCTYPE svg PUBLIC "-//W3C//DTD SVG 20010904//EN"
 "http://www.w3.org/TR/2001/REC-SVG-20010904/DTD/svg10.dtd">
<svg version="1.0" xmlns="http://www.w3.org/2000/svg"
 width="900.000000pt" height="900.000000pt" viewBox="0 0 900.000000 900.000000"
 preserveAspectRatio="xMidYMid meet">
<metadata>
Created by potrace 1.16, written by Peter Selinger 2001-2019
</metadata>
<g transform="translate(0.000000,900.000000) scale(0.100000,-0.100000)"
fill="#000000" stroke="none">
<path d="M1330 5589 l0 -412 43 8 c132 22 181 25 372 24 l210 -1 3 101 3 101
449 0 c248 0 450 3 450 8 0 4 -24 135 -53 292 l-54 285 -711 3 -712 2 0 -411z"/>
<path d="M4100 5414 c-113 -31 -209 -116 -252 -222 -22 -56 -23 -65 -23 -407
0 -347 0 -351 24 -410 33 -82 124 -173 206 -206 58 -23 69 -24 315 -24 241 0
258 1 310 22 151 61 226 177 245 376 l7 67 -146 0 -146 0 0 -29 c0 -76 -49
-135 -124 -152 -30 -6 -105 -10 -176 -8 -148 5 -182 18 -217 89 -22 42 -23 56
-23 275 0 219 1 233 23 275 35 71 69 84 217 89 71 2 146 -2 176 -8 75 -17 124
-76 124 -152 l0 -29 146 0 146 0 -7 68 c-19 198 -95 315 -245 374 -50 20 -75
22 -290 25 -185 2 -247 -1 -290 -13z"/>
<path d="M5010 4785 l0 -645 505 0 505 0 0 140 0 140 -365 0 -365 0 0 135 0
135 320 0 320 0 0 140 0 140 -320 0 -320 0 0 90 0 90 365 0 365 0 0 140 0 140
-505 0 -505 0 0 -645z"/>
<path d="M6110 4785 l0 -645 505 0 505 0 0 140 0 140 -365 0 -365 0 0 505 0
505 -140 0 -140 0 0 -645z"/>
<path d="M7210 4785 l0 -645 505 0 505 0 0 140 0 140 -365 0 -365 0 0 505 0
505 -140 0 -140 0 0 -645z"/>
<path d="M3609 5051 c-77 -78 -187 -139 -314 -173 -68 -18 -108 -21 -265 -22
-205 0 -249 5 -686 84 -400 73 -496 83 -703 77 -203 -5 -261 -17 -396 -82
-115 -55 -206 -137 -285 -258 -33 -50 -60 -95 -60 -101 0 -6 15 12 34 40 48
71 137 148 212 184 177 85 386 81 809 -16 570 -130 765 -157 973 -136 64 6
151 21 192 33 161 45 331 153 440 280 49 57 127 161 118 158 -2 -1 -33 -31
-69 -68z"/>
<path d="M1389 4650 c-52 -8 -219 -57 -219 -65 0 -1 21 -1 48 1 42 3 43 2 12
-5 -19 -4 -54 -17 -77 -29 -48 -25 -67 -28 -39 -7 11 8 15 15 9 15 -13 0 -28
-19 -28 -34 0 -5 -6 -11 -14 -14 -9 -3 -11 0 -6 9 5 8 4 11 -1 6 -5 -5 -9 -14
-9 -20 0 -7 -9 -13 -20 -16 -61 -11 -175 -125 -256 -256 -54 -86 -108 -222
-106 -270 0 -11 -3 -40 -7 -65 -5 -33 -4 -41 3 -30 8 11 9 0 5 -41 -4 -35 -2
-64 5 -75 9 -16 10 -12 6 21 -3 22 -1 54 5 70 9 28 9 27 4 -10 -8 -57 1 -41
21 35 40 156 116 284 227 385 55 49 175 121 185 111 5 -5 -69 -50 -82 -50 -5
-1 -10 -5 -10 -11 0 -16 -15 -35 -28 -35 -7 0 -3 7 7 15 11 8 15 15 9 15 -6 0
-16 -7 -23 -15 -7 -8 -9 -15 -4 -15 4 0 -5 -13 -21 -30 -20 -21 -24 -30 -13
-30 8 0 23 9 33 20 13 14 27 18 51 15 22 -3 34 0 34 8 0 11 79 51 87 44 1 -2
-22 -21 -52 -43 -86 -61 -93 -66 -59 -50 17 8 35 12 39 8 5 -4 4 -1 0 7 -6 11
-4 13 9 8 10 -4 35 2 59 15 23 11 53 21 67 22 14 1 24 6 23 14 -2 6 3 12 10
12 6 0 22 3 35 6 13 4 22 3 21 -2 -1 -5 -1 -253 0 -551 l1 -543 728 0 727 0
76 293 75 292 -488 3 -488 2 0 205 c0 134 4 205 10 205 6 0 70 -11 143 -24
512 -95 878 -26 1191 224 71 55 226 218 226 235 0 5 -8 0 -18 -11 -59 -72
-195 -156 -316 -193 -227 -70 -441 -48 -976 99 -140 39 -313 81 -383 95 -142
28 -356 40 -448 25z"/>
<path d="M7147 3597 c-97 -211 -177 -387 -177 -390 0 -4 40 -7 88 -7 l88 0 22
45 22 45 138 0 138 0 22 -45 22 -45 170 0 170 0 0 117 0 118 118 -118 117
-117 120 0 120 0 -99 99 c-98 98 -98 98 -69 105 88 22 143 98 151 206 9 130
-34 221 -123 261 -35 16 -69 19 -267 19 l-228 0 0 -342 0 -343 -176 380 c-96
209 -179 383 -183 388 -4 4 -87 -165 -184 -376z m947 129 c61 -25 69 -128 13
-158 -12 -6 -74 -13 -139 -16 l-118 -5 0 97 0 96 105 0 c68 0 118 -5 139 -14z"/>
<path d="M3830 3545 l0 -345 80 0 80 0 0 345 0 345 -80 0 -80 0 0 -345z"/>
<path d="M4030 3545 l0 -345 80 0 80 0 0 345 0 345 -80 0 -80 0 0 -345z"/>
<path d="M4240 3815 l0 -75 100 0 100 0 0 -270 0 -270 80 0 80 0 0 270 0 270
105 0 105 0 0 75 0 75 -285 0 -285 0 0 -75z"/>
<path d="M5120 3545 l0 -345 80 0 80 0 0 117 0 118 118 -118 117 -117 120 0
120 0 -99 99 c-98 98 -98 98 -69 105 88 22 143 98 151 206 9 130 -34 221 -123
261 -35 16 -69 19 -267 19 l-228 0 0 -345z m404 181 c61 -25 69 -128 13 -158
-12 -6 -74 -13 -139 -16 l-118 -5 0 97 0 96 105 0 c68 0 118 -5 139 -14z"/>
<path d="M5925 3878 c-50 -17 -92 -55 -115 -102 -20 -42 -21 -57 -18 -245 l3
-199 30 -43 c50 -71 87 -83 255 -87 167 -4 204 4 261 55 57 51 69 103 69 288
0 177 -13 234 -62 282 -56 55 -91 63 -250 62 -79 0 -156 -5 -173 -11z m269
-152 c45 -19 56 -55 56 -183 0 -172 -25 -199 -177 -191 -67 3 -78 6 -99 31
-23 27 -24 35 -24 160 0 179 11 195 143 196 37 1 83 -5 101 -13z"/>
<path d="M6460 3545 l0 -345 80 0 80 0 0 93 0 94 145 6 c159 7 199 18 253 70
82 80 82 284 0 364 -61 59 -84 63 -333 63 l-225 0 0 -345z m404 181 c70 -29
67 -140 -4 -165 -18 -6 -80 -11 -136 -11 l-104 0 0 95 0 95 105 0 c68 0 118
-5 139 -14z"/>
</g>
</svg>
